<svg xmlns="http://www.w3.org/2000/svg" width="96" height="96" viewBox="0 0 96 96"><switch><g><path d="M96 16v24a4 4 0 0 1-4 4H68a4 4 0 0 1 0-8h13.489c-5.383-5.247-9.634-9.4-10.834-10.6l-.027-.027A31.894 31.894 0 0 0 48 16a31.894 31.894 0 0 0-23.418 10.19 31.708 31.708 0 0 0-6.044 9.296c-.223.627-.501 1.234-.723 1.863a4 4 0 1 1-7.549-2.645 36.52 36.52 0 0 1 1.013-2.589 39.585 39.585 0 0 1 2.805-5.336 40.072 40.072 0 0 1 5.631-7.064 39.754 39.754 0 0 1 13.234-8.786 39.941 39.941 0 0 1 7.413-2.197 40.269 40.269 0 0 1 15.275 0 39.941 39.941 0 0 1 7.413 2.197 39.743 39.743 0 0 1 13.234 8.786l.059.059c1.282 1.278 5.905 5.794 11.657 11.4V16a4 4 0 0 1 8 0zM4 84a4 4 0 0 0 4-4V64.825c5.752 5.606 10.375 10.122 11.657 11.4l.059.059A39.754 39.754 0 0 0 32.95 85.07a39.941 39.941 0 0 0 7.413 2.197A40.14 40.14 0 0 0 63.05 85.07a39.743 39.743 0 0 0 13.234-8.786 40.007 40.007 0 0 0 5.631-7.064 39.7 39.7 0 0 0 3.818-7.925 4 4 0 0 0-7.549-2.645c-.222.629-.5 1.236-.723 1.863-3.276 7.729-9.641 13.989-17.418 17.144C56.21 79.212 52.158 80 48 80a31.894 31.894 0 0 1-22.628-9.373l-.027-.027c-1.2-1.199-5.451-5.353-10.834-10.6H28a4 4 0 0 0 0-8H4a4 4 0 0 0-4 4v24a4 4 0 0 0 4 4z"/></g></switch></svg>